<?xml version="1.0" encoding="utf-8"?>
<!-- Generator: Adobe Illustrator 25.2.0, SVG Export Plug-In . SVG Version: 6.00 Build 0)  -->
<svg version="1.1" id="Layer_1" xmlns="http://www.w3.org/2000/svg" xmlns:xlink="http://www.w3.org/1999/xlink" x="0px" y="0px"
	 viewBox="0 0 34 22" style="enable-background:new 0 0 34 22;" xml:space="preserve">
<style type="text/css">
	.st0{fill:#FFFFFF;}
	.st1{opacity:0.4;}
	.st2{opacity:0.4;fill:#FFFFFF;}
</style>
<g>
	<path class="st0" d="M21.8,0.2v9.5h-9.5V0.2H21.8 M22,0H12v10h10V0L22,0z"/>
</g>
<polygon class="st0" points="17,4.1 18.2,5.9 15.8,5.9 "/>
<g class="st1">
	<path class="st0" d="M9.8,12.3v9.5H0.2v-9.5H9.8 M10,12H0v10h10V12L10,12z"/>
</g>
<polygon class="st2" points="5,15.8 5,18.2 3.2,17 "/>
<g class="st1">
	<path class="st0" d="M21.8,12.3v9.5h-9.5v-9.5H21.8 M22,12H12v10h10V12L22,12z"/>
</g>
<polygon class="st2" points="18.2,16.1 17,17.9 15.8,16.1 "/>
<g>
	<path class="st0" d="M33.7,12.3v9.5h-9.5v-9.5H33.7 M34,12H24v10h10V12L34,12z"/>
</g>
<polygon class="st0" points="29,18.2 29,15.8 30.8,17 "/>
</svg>
